<svg xmlns="http://www.w3.org/2000/svg" width="960" height="520" viewBox="0 0 960 520" role="img" aria-label="FieldOS dashboard screenshot reference">
  <rect width="960" height="520" fill="#f8fafc"/>
  <rect x="0" y="0" width="220" height="520" fill="#ffffff" stroke="#e2e8f0"/>
  <text x="28" y="42" font-family="Arial" font-size="20" font-weight="700" fill="#020617">FieldOS</text>
  <rect x="28" y="84" width="160" height="34" rx="6" fill="#020617"/>
  <text x="48" y="107" font-family="Arial" font-size="13" fill="#ffffff">Dashboard</text>
  <text x="260" y="58" font-family="Arial" font-size="28" font-weight="700" fill="#020617">Operations Command Center</text>
  <rect x="260" y="94" width="620" height="74" rx="6" fill="#ffffff" stroke="#e2e8f0"/>
  <text x="286" y="125" font-family="Arial" font-size="14" font-weight="700" fill="#020617">Pilot Setup</text>
  <rect x="286" y="142" width="420" height="8" rx="4" fill="#020617"/>
  <g fill="#ffffff" stroke="#e2e8f0">
    <rect x="260" y="196" width="140" height="92" rx="6"/>
    <rect x="420" y="196" width="140" height="92" rx="6"/>
    <rect x="580" y="196" width="140" height="92" rx="6"/>
    <rect x="740" y="196" width="140" height="92" rx="6"/>
  </g>
  <text x="286" y="232" font-family="Arial" font-size="13" fill="#64748b">Active Projects</text>
  <text x="286" y="266" font-family="Arial" font-size="30" font-weight="700" fill="#020617">3</text>
  <rect x="260" y="320" width="620" height="150" rx="6" fill="#ffffff" stroke="#e2e8f0"/>
  <text x="286" y="354" font-family="Arial" font-size="16" font-weight="700" fill="#020617">Recent Evidence</text>
</svg>
